<svg width="248" height="170" fill="none" xmlns="http://www.w3.org/2000/svg"><path d="M119.797 143.12c-2.634 6.368-5.977 10.31-14.384 10.31H94.576v-43.666c.1-2.729 2.228-4.852 4.963-4.852h.607v-1.516h-22.79v1.516h.608c2.735 0 4.862 2.123 4.963 4.852v41.24c-.101 2.729-2.228 4.852-4.963 4.852h-.608v1.617h41.326l3.039-14.353h-1.924zm75.257-39.825v1.516h.608c2.634 0 4.761 2.022 4.963 4.65v41.644c-.101 2.729-2.228 4.852-4.963 4.852h-.608v1.516h39.807l3.039-13.645h-2.026c-2.634 6.367-7.394 9.804-14.383 9.804h-9.319v-21.024h8.002c3.646.101 6.28 2.729 6.381 6.267h1.418v-15.87h-1.418c-.304 3.437-2.937 5.964-6.482 5.964h-7.901v-21.732h12.256c4.356.202 7.192 2.426 7.496 6.671h1.823v-10.613h-38.693zm-39.097-.606s15.092-.506 23.296 8.49c11.345 12.332 8.407 29.01-3.038 37.702-6.686 5.054-12.965 6.672-17.22 11.119h-1.418c-.304-2.527 5.369-11.523 11.142-19.609 9.319-13.14 8.711-34.468-12.661-34.468-21.271 0-21.98 21.227-12.661 34.468 5.773 8.187 11.446 17.082 11.142 19.609h-1.418c-4.255-4.447-10.534-6.065-17.22-11.119-11.546-8.692-14.383-25.37-3.038-37.702 8.002-8.996 23.094-8.49 23.094-8.49zM27.522 139.987l8.508-19.913 8.103 19.913h-16.61zm41.529 15.869c-2.33 0-5.065-1.213-6.584-4.448l-22.993-49.629-22.385 49.73c-1.62 3.033-4.355 4.347-6.482 4.347H10.1v1.516h16.207v-1.516H25.8c-2.026 0-4.254-1.719-2.937-4.852l2.937-6.974h20.055l2.938 7.075c1.215 3.134-1.013 4.65-3.039 4.65h-.506v1.617h24.208v-1.516h-.405z" fill="#fff"/><path d="M153.222 134.629s-13.066.91-12.965-12.432c5.368 0 12.965 2.931 12.965 12.432zm5.368 0s13.067.91 12.965-12.432c-5.368 0-12.965 2.931-12.965 12.432zM92.752 50.33l-11.75 9.906-10.23 2.224 40.516-38.107 5.166-1.112L127.292 10l.506 10.512-1.316 3.538 1.721 4.144v5.458l-4.254-6.57-2.937 3.841 9.015 18.396.506-.303-1.924-11.22 4.456 2.629.811-.91-2.431-5.66 2.228-1.82 1.925 3.437.911-4.549 4.052-1.415-5.369-6.57-1.215 2.628-1.722-5.56.101-4.042 6.989 7.884 4.558 3.942 5.065-6.267 8.508 8.996-5.47-.809 1.115 3.336 4.862 7.278.607-.607-1.722-6.368 6.179 4.245 6.077 7.48 20.359 18.599-4.76-1.315-7.192-3.537-12.458-11.22h-1.013l1.722 7.379-7.394-5.054-2.735-8.39-6.584-6.57-.203 9.502 13.472 13.342-5.166 1.617-3.95-3.84L139.75 47.6l4.862 11.22 6.382 8.996-14.991-2.83-8.61-5.863-16.003-6.065-3.343-6.974-4.052-.505-4.558-2.73 5.47 16.577L93.36 53.97l-.608-3.639zm36.566 40.937h-3.14V85h3.14c1.62 0 3.241 1.112 3.241 3.133 0 2.022-1.418 3.134-3.241 3.134zm-3.14-15.465h3.038c1.52 0 2.735 1.01 2.735 2.931 0 1.92-1.317 2.931-2.735 2.931h-3.038v-5.862zm6.887 7.379v-.102s3.242-.606 3.242-4.65c0-4.042-3.039-5.457-6.888-5.457h-7.495v21.226h7.698c4.254 0 7.292-1.617 7.292-6.065.102-4.548-3.849-4.952-3.849-4.952zM74.52 76.307h-6.077v17.891H64.39v-17.89h-6.077v-3.336H74.52v3.335zm82.956-3.335h12.357v3.234h-8.204v5.458h5.47V85h-5.47v5.964h8.407v3.234h-12.56V72.972zm-59.153 0H94.17v21.226h4.153V72.972zm105.037 3.335h-5.976v17.891h-4.153v-17.89h-6.077v-3.336h16.206v3.335z" fill="#fff"/></svg>